<?xml version="1.0" encoding="UTF-8" standalone="no"?>
<!-- Created with Inkscape (http://www.inkscape.org/) -->
<svg xmlns:dc="http://purl.org/dc/elements/1.1/" xmlns:cc="http://creativecommons.org/ns#" xmlns:rdf="http://www.w3.org/1999/02/22-rdf-syntax-ns#" xmlns:svg="http://www.w3.org/2000/svg" xmlns="http://www.w3.org/2000/svg" xmlns:xlink="http://www.w3.org/1999/xlink" version="1.1" width="376.53607" height="334.47083" viewBox="0 0 376.53607 334.47084" id="Ebene_1" xml:space="preserve"><script xmlns=""/><script xmlns=""/><metadata id="metadata38"><rdf:RDF><cc:Work rdf:about=""><dc:format>image/svg+xml</dc:format><dc:type rdf:resource="http://purl.org/dc/dcmitype/StillImage"/><cc:license rdf:resource="http://creativecommons.org/licenses/by-sa/3.0/"/><dc:subject><rdf:Bag><rdf:li>subversion</rdf:li><rdf:li>logo</rdf:li></rdf:Bag></dc:subject><dc:title/><dc:date>Sept 2010</dc:date><dc:creator><cc:Agent><dc:title>Franziska Sponsel</dc:title></cc:Agent></dc:creator><dc:rights><cc:Agent><dc:title>Franziska Sponsel</dc:title></cc:Agent></dc:rights><dc:publisher><cc:Agent><dc:title>RRZE</dc:title></cc:Agent></dc:publisher><dc:contributor><cc:Agent><dc:title>Hendrik Eggers, Beate Kaspar</dc:title></cc:Agent></dc:contributor></cc:Work><cc:License rdf:about="http://creativecommons.org/licenses/by-sa/3.0/"><cc:permits rdf:resource="http://creativecommons.org/ns#Reproduction"/><cc:permits rdf:resource="http://creativecommons.org/ns#Distribution"/><cc:requires rdf:resource="http://creativecommons.org/ns#Notice"/><cc:requires rdf:resource="http://creativecommons.org/ns#Attribution"/><cc:permits rdf:resource="http://creativecommons.org/ns#DerivativeWorks"/><cc:requires rdf:resource="http://creativecommons.org/ns#ShareAlike"/></cc:License></rdf:RDF></metadata>

<path d="m 1.5061553,1.4250001 373.5287447,0 0,331.6208299 -373.5287447,0 0,-331.6208299 z" id="rect5414" style="fill:#729fcf;fill-opacity:1;stroke:#ffffff;stroke-width:2.85000014;stroke-linecap:round;stroke-linejoin:round;stroke-miterlimit:4;stroke-opacity:1;stroke-dasharray:none"/><path d="m 8.7439673,11.858293 c 0,104.217987 0,208.435987 0,312.653977 119.6827127,0 239.3654427,0 359.0481427,0 0,-104.85675 0,-209.71352 0,-314.5702669 -119.6827,0 -239.36543,0 -359.0481427,0 l 0,0.9581499 0,0.95814 z" id="path5417" style="fill:#000000;fill-opacity:1;stroke:#ffffff;stroke-width:17.487957;stroke-linecap:round;stroke-linejoin:miter;stroke-miterlimit:4;stroke-opacity:1;stroke-dasharray:none"/><path d="M 359.63006,15.037366 C 236.85477,42.547254 114.20307,68.027234 11.540471,112.29769 l 1.919615,62.70732 c 6.531791,6.53179 260.250964,-47.11576 274.504474,-10.8778 14.25352,36.23797 -267.962802,87.26576 -273.864609,83.82304 l 1.919614,23.03535 C 139.67068,246.8398 260.43328,220.47208 362.18955,179.4841 l 1.27974,-73.58512 c -98.83136,8.34891 -276.376183,34.51649 -257.86785,10.23793 18.50833,-24.278547 90.71199,-48.374794 257.86785,-78.064199 l -3.83923,-23.035345 z" id="path5441" style="fill:#ffffff;fill-opacity:1;fill-rule:evenodd;stroke:none"/><path d="m 34.575806,196.12073 a 5.1189645,5.1189645 0 0 1 -10.237929,0 5.1189645,5.1189645 0 1 1 10.237929,0 z" id="path5443" style="fill:#ffffff;fill-opacity:1;stroke:none"/><path d="m 48.908906,196.12073 a 5.1189645,5.1189645 0 1 1 -10.237928,0 5.1189645,5.1189645 0 1 1 10.237928,0 z" id="path5445" style="fill:#ffffff;fill-opacity:1;stroke:none"/><path d="m 34.575806,219.41202 a 5.1189645,5.1189645 0 0 1 -10.237929,0 5.1189645,5.1189645 0 1 1 10.237929,0 z" id="path5447" style="fill:#ffffff;fill-opacity:1;stroke:none"/><path d="m 48.908906,219.41202 a 5.1189645,5.1189645 0 1 1 -10.237928,0 5.1189645,5.1189645 0 1 1 10.237928,0 z" id="path5449" style="fill:#ffffff;fill-opacity:1;stroke:none"/><rect width="350.00922" height="42.87133" x="12.820205" y="269.70584" id="rect5465" style="fill:#ffffff;fill-opacity:1;stroke:none"/><path d="m 41.268738,279.47653 0,3.30662 c -1.472716,-0.61542 -2.862173,-1.0742 -4.16837,-1.37636 -1.306234,-0.30211 -2.567633,-0.45315 -3.78419,-0.45318 -2.113011,3e-5 -3.745782,0.35809 -4.898315,1.07424 -1.139751,0.71617 -1.709613,1.73445 -1.709613,3.05484 0,1.10781 0.377772,1.94708 1.133342,2.51774 0.768352,0.55949 2.215434,1.01269 4.341252,1.35957 l 2.3435,0.41961 c 2.894153,0.48118 5.026363,1.33163 6.396629,2.5513 1.383031,1.20854 2.074559,2.83108 2.074577,4.86762 -1.8e-5,2.42822 -0.934861,4.26897 -2.804521,5.52222 -1.856896,1.25328 -4.584585,1.87992 -8.183067,1.87992 -1.357458,0 -2.804539,-0.13427 -4.341252,-0.40283 -1.523931,-0.26858 -3.105478,-0.6658 -4.74465,-1.19174 l 0,-3.49125 c 1.575139,0.7721 3.118269,1.354 4.629392,1.74564 1.511106,0.39164 2.996603,0.58748 4.45651,0.58748 2.215434,0 3.925038,-0.38047 5.128822,-1.1414 1.203748,-0.76089 1.805636,-1.84634 1.805654,-3.25626 -1.8e-5,-1.23087 -0.435423,-2.1932 -1.306216,-2.88701 -0.858028,-0.69374 -2.273093,-1.21409 -4.245212,-1.56098 l -2.362716,-0.40284 c -2.894171,-0.50354 -4.987965,-1.29243 -6.281372,-2.36666 -1.293407,-1.07423 -1.940119,-2.56808 -1.940111,-4.48158 -8e-6,-2.21558 0.890019,-3.96122 2.670056,-5.23689 1.792845,-1.27562 4.258002,-1.91344 7.395497,-1.91347 1.344623,3e-5 2.714872,0.10633 4.110746,0.31893 1.395839,0.21262 2.823712,0.53155 4.283628,0.95672" id="flowRoot5476" style="font-size:13px;font-style:normal;font-weight:normal;fill:#729fcf;fill-opacity:1;stroke:#729fcf;stroke-width:1.73520505;stroke-linecap:butt;stroke-linejoin:round;stroke-miterlimit:4;stroke-opacity:1;stroke-dasharray:none;font-family:Bitstream Vera Sans"/><path d="m 57.732493,278.59493 3.968634,0 0,15.49395 c -2.6e-5,2.73324 0.566945,4.70345 1.700827,5.91061 1.133872,1.19579 2.97156,1.79369 5.513055,1.79369 2.528438,0 4.359594,-0.5979 5.493511,-1.79369 1.133873,-1.20716 1.700818,-3.17737 1.700844,-5.91061 l 0,-15.49395 3.968607,0 0,15.92102 c 0,3.32543 -0.944929,5.83659 -2.834725,7.53346 -1.876803,1.69686 -4.652861,2.54531 -8.328237,2.54531 -3.688397,0 -6.47752,-0.84845 -8.367316,-2.54531 -1.876803,-1.69687 -2.8152,-4.20803 -2.8152,-7.53346 l 0,-15.92102" id="flowRoot5484" style="font-size:13px;font-style:normal;font-weight:normal;fill:#729fcf;fill-opacity:1;stroke:#729fcf;stroke-width:1.73520505;stroke-linecap:butt;stroke-linejoin:round;stroke-miterlimit:4;stroke-opacity:1;stroke-dasharray:none;font-family:Bitstream Vera Sans"/><path d="m 99.461407,291.93369 0,9.52572 6.457183,0 c 2.16566,0 3.76667,-0.38892 4.80302,-1.16676 1.04959,-0.78946 1.57442,-1.99106 1.57445,-3.60481 -3e-5,-1.62533 -0.52486,-2.82114 -1.57445,-3.58739 -1.03635,-0.77782 -2.63736,-1.16676 -4.80302,-1.16676 l -6.457183,0 m 0,-10.69248 0,7.8365 5.958923,0 c 1.96637,2e-5 3.4279,-0.31923 4.38452,-0.9578 0.96988,-0.65011 1.45483,-1.63693 1.45487,-2.96045 -4e-5,-1.31186 -0.48499,-2.29289 -1.45487,-2.94303 -0.95662,-0.65012 -2.41815,-0.97519 -4.38452,-0.97522 l -5.958923,0 m -4.02579,-2.8908 10.283673,0 c 3.06912,4e-5 5.43412,0.55728 7.09495,1.67178 1.66075,1.11456 2.49114,2.69928 2.49117,4.75415 -3e-5,1.59054 -0.42517,2.85601 -1.27549,3.79635 -0.85036,0.9404 -2.09926,1.5267 -3.74677,1.75888 1.97966,0.37152 3.51424,1.14937 4.60374,2.33353 1.10274,1.17257 1.65414,2.64119 1.65417,4.40586 -3e-5,2.32192 -0.9035,4.11561 -2.71042,5.38105 -1.80698,1.26547 -4.3779,1.89819 -7.71277,1.89819 l -10.682253,0 0,-25.99979" id="flowRoot5492" style="font-size:13px;font-style:normal;font-weight:normal;fill:#729fcf;fill-opacity:1;stroke:#729fcf;stroke-width:1.73520505;stroke-linecap:butt;stroke-linejoin:round;stroke-miterlimit:4;stroke-opacity:1;stroke-dasharray:none;font-family:Bitstream Vera Sans"/><path d="m 138.23827,304.37135 -11.35988,-25.99979 4.20516,0 9.42669,21.88997 9.44662,-21.88997 4.18522,0 -11.33995,25.99979 -4.56386,0" id="flowRoot5500" style="font-size:13px;font-style:normal;font-weight:normal;fill:#888a85;fill-opacity:1;stroke:#888a85;stroke-width:1.73520505;stroke-linecap:butt;stroke-linejoin:round;stroke-miterlimit:4;stroke-opacity:1;stroke-dasharray:none;font-family:Bitstream Vera Sans"/><path d="m 167.79621,278.31547 18.81352,0 0,2.96045 -14.78775,0 0,7.69719 14.16994,0 0,2.96048 -14.16994,0 0,9.42122 15.14649,0 0,2.96045 -19.17226,0 0,-25.99979" id="flowRoot5508" style="font-size:13px;font-style:normal;font-weight:normal;fill:#888a85;fill-opacity:1;stroke:#888a85;stroke-width:1.73520505;stroke-linecap:butt;stroke-linejoin:round;stroke-miterlimit:4;stroke-opacity:1;stroke-dasharray:none;font-family:Bitstream Vera Sans"/><path d="m 217.70365,292.36512 c 0.86359,0.25543 1.70063,0.8011 2.51112,1.63696 0.82373,0.83591 1.64749,1.98527 2.47128,3.44808 l 4.08556,7.10509 -4.32472,0 -3.80656,-6.66973 c -0.9832,-1.74146 -1.93983,-2.89661 -2.86985,-3.4655 -0.91678,-0.56885 -2.17234,-0.85329 -3.7667,-0.85329 l -4.38451,0 0,10.98852 -4.02577,0 0,-25.99979 9.08789,0 c 3.4013,3e-5 5.939,0.62115 7.61311,1.86335 1.67406,1.24227 2.51109,3.11722 2.51112,5.62486 -3e-5,1.63699 -0.43847,2.9953 -1.31536,4.07498 -0.86363,1.07971 -2.12583,1.82854 -3.78661,2.24647 m -10.08438,-10.91886 0,9.22967 5.06212,0 c 1.9398,0 3.4013,-0.38891 4.38451,-1.16679 0.99646,-0.78943 1.4947,-1.94458 1.49472,-3.46547 -2e-5,-1.52082 -0.49826,-2.66438 -1.49472,-3.43065 -0.98321,-0.77782 -2.44471,-1.16673 -4.38451,-1.16676 l -5.06212,0" id="flowRoot5516" style="font-size:13px;font-style:normal;font-weight:normal;fill:#888a85;fill-opacity:1;stroke:#888a85;stroke-width:1.73520505;stroke-linecap:butt;stroke-linejoin:round;stroke-miterlimit:4;stroke-opacity:1;stroke-dasharray:none;font-family:Bitstream Vera Sans"/><path d="m 257.26587,279.54133 0,3.30663 c -1.47271,-0.61543 -2.86218,-1.07421 -4.16837,-1.37637 -1.30624,-0.3021 -2.56761,-0.45314 -3.78419,-0.45317 -2.11299,3e-5 -3.74576,0.35808 -4.8983,1.07423 -1.13975,0.71617 -1.70961,1.73445 -1.70961,3.05484 0,1.10782 0.37776,1.94708 1.13333,2.51774 0.76834,0.5595 2.21543,1.0127 4.34125,1.35957 l 2.3435,0.41962 c 2.89416,0.48118 5.02637,1.33162 6.39662,2.55129 1.38305,1.20854 2.07456,2.83109 2.07459,4.86762 -3e-5,2.42823 -0.93487,4.26898 -2.80453,5.52223 -1.85689,1.25327 -4.58459,1.87991 -8.18306,1.87991 -1.35745,0 -2.80453,-0.13427 -4.34125,-0.40282 -1.52393,-0.26859 -3.10549,-0.6658 -4.74465,-1.19175 l 0,-3.49125 c 1.57515,0.7721 3.11826,1.354 4.62938,1.74564 1.51111,0.39164 2.99663,0.58748 4.45652,0.58748 2.21542,0 3.92503,-0.38046 5.12884,-1.1414 1.20375,-0.76089 1.80562,-1.84633 1.80562,-3.25626 0,-1.23087 -0.4354,-2.1932 -1.30621,-2.887 -0.85801,-0.69375 -2.27308,-1.21409 -4.2452,-1.56099 l -2.36271,-0.40283 c -2.89417,-0.50355 -4.98798,-1.29244 -6.28136,-2.36667 -1.29342,-1.07423 -1.94014,-2.56808 -1.94014,-4.48158 0,-2.21557 0.89003,-3.96121 2.67008,-5.23689 1.79282,-1.27562 4.258,-1.91344 7.3955,-1.91347 1.34462,3e-5 2.71487,0.10633 4.11072,0.31893 1.39585,0.21263 2.82372,0.53155 4.28363,0.95672" id="flowRoot5524" style="font-size:13px;font-style:normal;font-weight:normal;fill:#888a85;fill-opacity:1;stroke:#888a85;stroke-width:1.73520505;stroke-linecap:butt;stroke-linejoin:round;stroke-miterlimit:4;stroke-opacity:1;stroke-dasharray:none;font-family:Bitstream Vera Sans"/><path d="m 273.73204,278.31497 4.02579,0 0,25.99979 -4.02579,0 0,-25.99979" id="flowRoot5532" style="font-size:13px;font-style:normal;font-weight:normal;fill:#888a85;fill-opacity:1;stroke:#888a85;stroke-width:1.73520505;stroke-linecap:butt;stroke-linejoin:round;stroke-miterlimit:4;stroke-opacity:1;stroke-dasharray:none;font-family:Bitstream Vera Sans"/><path d="m 303.97516,280.99235 c -2.81736,3e-5 -5.05839,0.91758 -6.72318,2.75271 -1.65198,1.83517 -2.47798,4.33611 -2.47798,7.50286 0,3.15556 0.826,5.6509 2.47798,7.48605 1.66479,1.83514 3.90582,2.75273 6.72318,2.75273 2.8173,0 5.04556,-0.91759 6.68475,-2.75273 1.65196,-1.83515 2.47795,-4.33049 2.47798,-7.48605 -3e-5,-3.16675 -0.82602,-5.66769 -2.47798,-7.50286 -1.63919,-1.83513 -3.86745,-2.75268 -6.68475,-2.75271 m 0,-2.75273 c 4.02109,3e-5 7.23539,1.18056 9.64295,3.54162 2.40753,2.34991 3.61128,5.50544 3.61131,9.46668 -3e-5,3.95003 -1.20378,7.10559 -3.61131,9.46665 -2.40756,2.34991 -5.62186,3.52483 -9.64295,3.52483 -4.03391,0 -7.26105,-1.17492 -9.68138,-3.52483 -2.40752,-2.34987 -3.61131,-5.50541 -3.61131,-9.46665 0,-3.96124 1.20379,-7.11677 3.61131,-9.46668 2.42033,-2.36106 5.64747,-3.54159 9.68138,-3.54162" id="flowRoot5540" style="font-size:13px;font-style:normal;font-weight:normal;fill:#888a85;fill-opacity:1;stroke:#888a85;stroke-width:1.73520505;stroke-linecap:butt;stroke-linejoin:round;stroke-miterlimit:4;stroke-opacity:1;stroke-dasharray:none;font-family:Bitstream Vera Sans"/><path d="m 331.89794,278.5886 5.42085,0 13.19339,21.75065 0,-21.75065 3.9062,0 0,25.99979 -5.42085,0 -13.19339,-21.75066 0,21.75066 -3.9062,0 0,-25.99979" id="flowRoot5548" style="font-size:13px;font-style:normal;font-weight:normal;fill:#888a85;fill-opacity:1;stroke:#888a85;stroke-width:1.73520505;stroke-linecap:butt;stroke-linejoin:round;stroke-miterlimit:4;stroke-opacity:1;stroke-dasharray:none;font-family:Bitstream Vera Sans"/></svg>